<svg version="1.0" xmlns="http://www.w3.org/2000/svg" width="600.000000pt" height="598.000000pt" viewBox="0 0 600.000000 598.000000" preserveAspectRatio="xMidYMid meet" style="width: 297.993px; height: auto;"> <g transform="translate(0.000000,598.000000) scale(0.100000,-0.100000)" fill="#000000" stroke="none"> <path d="M5360 5950 c0 -13 90 -13 110 0 11 7 -3 10 -47 10 -36 0 -63 -4 -63 -10z"></path> <path d="M5560 5950 c0 -5 20 -10 45 -10 25 0 45 5 45 10 0 6 -20 10 -45 10 -25 0 -45 -4 -45 -10z"></path> <path d="M5675 5931 c-3 -6 -1 -11 5 -11 6 0 38 -13 72 -30 67 -33 72 -35 62 -19 -3 6 -32 23 -63 37 -31 15 -59 28 -63 30 -3 2 -9 -2 -13 -7z"></path> <path d="M5310 5919 c0 -5 5 -7 10 -4 6 3 10 8 10 11 0 2 -4 4 -10 4 -5 0 -10 -5 -10 -11z"></path> <path d="M5174 5890 c-22 -9 -42 -30 -28 -30 17 0 74 25 74 32 0 10 -19 9 -46 -2z"></path> <path d="M5295 5872 c-57 -20 -118 -65 -186 -134 -24 -25 -43 -74 -33 -89 8 -13 77 -20 87 -10 8 8 5 11 -10 11 -61 0 -73 44 -22 82 17 13 50 40 73 60 61 53 103 68 191 68 87 0 114 -11 192 -77 45 -38 56 -54 73 -110 23 -75 24 -103 9 -187 -21 -120 -27 -133 -92 -198 -34 -35 -71 -74 -82 -88 -19 -24 -19 -24 -1 -10 38 29 148 145 161 170 27 54 47 167 40 227 -16 126 -61 200 -158 257 -42 25 -61 29 -135 32 -48 2 -96 0 -107 -4z"></path> <path d="M5101 5829 c-13 -11 -21 -23 -17 -26 4 -4 16 3 28 15 28 28 20 36 -11 11z"></path> <path d="M5880 5793 c0 -4 11 -18 24 -32 59 -63 78 -210 42 -330 -9 -30 -14 -57 -11 -59 3 -3 5 -3 5 -1 0 2 9 29 20 59 14 38 20 80 20 137 0 72 -4 91 -31 146 -27 54 -69 103 -69 80z"></path> <path d="M5019 5748 c-40 -53 -68 -102 -69 -118 0 -8 23 21 51 64 51 78 63 113 18 54z"></path> <path d="M5200 5603 c0 -4 12 -19 26 -34 33 -35 36 -97 7 -137 -11 -15 -22 -35 -26 -44 -7 -20 -81 -33 -131 -24 -25 5 -48 21 -81 59 -38 43 -45 48 -45 29 0 -32 71 -99 115 -108 71 -13 122 3 170 54 41 43 45 51 45 97 0 45 -4 55 -33 83 -32 31 -47 39 -47 25z"></path> <path d="M5893 5323 c-43 -57 -131 -139 -198 -183 -33 -22 -65 -44 -71 -49 -7 -5 -15 -7 -18 -4 -3 4 -6 2 -6 -4 0 -6 -13 -16 -30 -23 -16 -7 -27 -17 -24 -22 3 -5 13 -3 23 6 10 9 21 16 25 16 4 0 19 8 34 19 15 10 56 38 92 61 67 44 148 121 189 178 33 47 19 51 -16 5z"></path> <path d="M3076 5242 c-2 -4 7 -9 22 -10 21 -1 24 0 12 8 -18 12 -27 12 -34 2z"></path> <path d="M3220 5240 c19 -5 73 -14 120 -20 47 -7 93 -14 103 -16 9 -1 17 1 17 5 0 13 -147 41 -213 40 -55 -1 -58 -2 -27 -9z"></path> <path d="M3036 5214 c-22 -59 10 -92 103 -106 120 -17 251 -54 286 -81 6 -4 23 -17 39 -29 16 -12 42 -42 57 -67 38 -59 41 -154 8 -208 -12 -19 -19 -36 -16 -39 3 -3 19 18 37 48 60 104 28 200 -105 307 -39 31 -178 73 -303 90 -35 5 -66 12 -69 15 -3 3 -6 19 -5 35 1 35 -22 61 -32 35z"></path> <path d="M3495 5190 c-3 -5 0 -10 7 -10 21 0 152 -42 168 -54 8 -7 35 -23 60 -36 76 -41 112 -68 185 -140 117 -115 183 -244 206 -400 13 -91 4 -174 -32 -283 -18 -53 -93 -182 -124 -214 -8 -7 -22 -23 -32 -36 -25 -31 -117 -107 -130 -107 -6 0 -16 -7 -23 -15 -7 -8 -9 -15 -4 -15 10 0 88 52 92 63 2 4 8 7 12 7 13 0 111 106 150 164 137 197 157 419 59 641 -55 126 -236 306 -366 366 -23 10 -46 19 -52 19 -5 0 -11 4 -13 8 -3 9 -127 52 -147 52 -5 0 -13 -4 -16 -10z"></path> <path d="M5409 5143 c-13 -10 -31 -24 -39 -32 -8 -7 -31 -22 -52 -31 -21 -9 -53 -31 -72 -48 -19 -17 -74 -51 -123 -75 -97 -49 -163 -104 -163 -136 0 -17 7 -13 39 22 35 38 108 88 200 138 16 8 36 22 45 30 31 28 45 39 51 39 7 0 93 58 112 77 7 6 18 13 25 16 7 2 10 7 7 10 -3 4 -16 -1 -30 -10z"></path> <path d="M975 5048 c-150 -27 -196 -42 -298 -93 -67 -34 -97 -56 -97 -71 0 -4 8 0 18 8 15 13 141 76 197 99 32 13 135 37 193 44 28 4 52 10 52 14 0 9 -13 9 -65 -1z"></path> <path d="M1465 5040 c17 -4 41 -8 55 -9 20 0 22 1 10 9 -8 5 -33 9 -55 9 -39 -1 -39 -2 -10 -9z"></path> <path d="M5425 4989 c-55 -27 -117 -55 -137 -61 -21 -6 -38 -15 -38 -20 0 -4 -7 -8 -16 -8 -8 0 -13 -4 -9 -10 3 -5 25 1 52 15 25 14 51 25 57 25 20 1 208 98 199 103 -5 3 -53 -17 -108 -44z"></path> <path d="M1562 5025 c2 -3 31 -7 64 -10 42 -3 51 -2 29 4 -33 10 -101 14 -93 6z"></path> <path d="M1740 4980 c14 -4 36 -8 50 -8 23 -1 23 0 5 8 -11 5 -33 8 -50 8 -29 0 -29 0 -5 -8z"></path> <path d="M1845 4951 c11 -5 36 -12 55 -15 l35 -7 -29 15 c-15 9 -40 16 -55 15 -23 0 -24 -1 -6 -8z"></path> <path d="M1950 4921 c0 -5 13 -11 30 -13 24 -4 27 -2 19 9 -13 15 -49 18 -49 4z"></path> <path d="M2060 4886 c0 -2 7 -7 16 -10 8 -3 12 -2 9 4 -6 10 -25 14 -25 6z"></path> <path d="M498 4833 c-49 -43 -59 -55 -52 -62 2 -3 17 7 32 22 15 16 41 39 57 52 17 13 24 25 18 25 -7 0 -32 -17 -55 -37z"></path> <path d="M2120 4866 c0 -7 25 -17 70 -31 22 -6 23 -5 10 8 -15 15 -80 34 -80 23z"></path> <path d="M5145 4850 c-16 -10 -40 -19 -52 -19 -76 -3 -60 -31 18 -31 52 0 59 2 59 19 0 11 9 23 20 26 11 3 20 11 20 16 0 14 -32 9 -65 -11z"></path> <path d="M2235 4820 c3 -5 11 -10 16 -10 6 0 7 5 4 10 -3 6 -11 10 -16 10 -6 0 -7 -4 -4 -10z"></path> <path d="M5850 4800 c-20 -13 -10 -19 22 -13 15 3 25 9 22 14 -7 12 -25 11 -44 -1z"></path> <path d="M2345 4790 c-5 -9 73 -25 81 -17 3 2 -13 9 -36 15 -22 5 -42 6 -45 2z"></path> <path d="M5977 4776 c-8 -8 -27 -45 -43 -83 -15 -37 -31 -70 -34 -73 -4 -3 -17 -27 -30 -53 -14 -27 -28 -51 -32 -53 -16 -10 -813 -14 -845 -5 -26 7 -33 7 -33 -4 0 -7 7 -16 16 -19 9 -3 205 -6 436 -6 483 0 429 -12 488 111 19 41 37 76 40 79 8 8 60 120 56 120 -3 0 -11 -6 -19 -14z"></path> <path d="M2460 4760 c-12 -8 -12 -10 0 -13 8 -2 40 -11 70 -20 30 -9 69 -19 85 -22 28 -6 29 -5 10 8 -11 8 -38 17 -60 21 -21 4 -51 14 -65 21 -16 8 -32 10 -40 5z"></path> <path d="M408 4746 c-45 -48 -138 -188 -138 -209 0 -7 -7 -22 -15 -33 -8 -10 -14 -28 -14 -39 0 -11 21 21 47 72 46 90 68 123 126 190 27 31 22 48 -6 19z"></path> <path d="M2700 4686 c40 -17 89 -21 75 -7 -6 5 -32 12 -60 15 l-50 6 35 -14z"></path> <path d="M3475 4660 c-10 -11 -13 -20 -8 -20 13 0 38 29 31 35 -3 3 -13 -4 -23 -15z"></path> <path d="M2816 4661 c5 -5 32 -12 59 -15 l50 -6 -50 15 c-59 17 -73 19 -59 6z"></path> <path d="M3015 4615 c68 -16 149 -20 125 -6 -8 5 -53 11 -100 15 l-85 5 60 -14z"></path> <path d="M3380 4618 c-19 -6 -68 -12 -109 -14 -103 -5 -102 -14 1 -14 46 0 88 3 92 7 3 4 14 8 24 9 33 5 52 10 58 17 10 10 -24 7 -66 -5z"></path> <path d="M214 4405 c-8 -21 -13 -63 -13 -107 l2 -73 8 68 c5 37 13 85 18 107 11 49 5 51 -15 5z"></path> <path d="M202 4180 c0 -14 2 -19 5 -12 2 6 2 18 0 25 -3 6 -5 1 -5 -13z"></path> <path d="M711 4171 c-8 -6 -9 -11 -3 -15 6 -3 14 -1 17 5 9 14 2 20 -14 10z"></path> <path d="M1350 4160 c19 -13 30 -13 30 0 0 6 -10 10 -22 10 -19 0 -20 -2 -8 -10z"></path> <path d="M615 4095 c-52 -53 -100 -137 -91 -159 2 -6 12 7 22 29 36 76 108 165 134 165 5 0 12 5 15 10 3 6 -1 10 -10 10 -9 0 -41 -25 -70 -55z"></path> <path d="M204 4085 c3 -55 21 -123 30 -114 2 2 -4 42 -15 89 l-18 85 3 -60z"></path> <path d="M1441 4136 c2 -2 22 -6 44 -9 27 -4 35 -3 25 3 -14 9 -79 15 -69 6z"></path> <path d="M1738 4063 c7 -3 16 -2 19 1 4 3 -2 6 -13 5 -11 0 -14 -3 -6 -6z"></path> <path d="M1778 4053 c7 -3 16 -2 19 1 4 3 -2 6 -13 5 -11 0 -14 -3 -6 -6z"></path> <path d="M1868 4033 c6 -2 18 -2 25 0 6 3 1 5 -13 5 -14 0 -19 -2 -12 -5z"></path> <path d="M2000 4000 c0 -5 9 -10 21 -10 11 0 17 5 14 10 -3 6 -13 10 -21 10 -8 0 -14 -4 -14 -10z"></path> <path d="M2123 3973 c9 -15 46 -23 53 -12 3 5 -1 9 -10 9 -8 0 -22 3 -32 7 -11 4 -15 3 -11 -4z"></path> <path d="M242 3930 c0 -14 2 -19 5 -12 2 6 2 18 0 25 -3 6 -5 1 -5 -13z"></path> <path d="M2270 3930 c8 -5 24 -10 35 -10 17 0 17 2 5 10 -8 5 -24 10 -35 10 -17 0 -17 -2 -5 -10z"></path> <path d="M1525 3925 c-5 -2 -36 -8 -67 -15 -31 -7 -59 -19 -62 -26 -3 -8 -4 -14 -3 -14 1 0 24 7 51 15 27 8 62 15 77 15 30 0 47 15 26 22 -6 3 -16 4 -22 3z"></path> <path d="M512 3870 c-3 -63 14 -147 33 -166 8 -9 15 -19 15 -22 0 -4 20 -30 45 -57 25 -28 45 -45 45 -40 0 12 -23 44 -55 78 -35 37 -65 124 -65 188 0 70 -15 87 -18 19z"></path> <path d="M266 3878 c4 -30 64 -131 64 -108 0 16 -38 92 -50 100 -4 3 -10 12 -13 20 -2 8 -3 3 -1 -12z"></path> <path d="M1576 3903 c5 -5 12 -12 16 -18 4 -6 8 -2 8 8 0 9 -7 17 -17 17 -9 0 -12 -3 -7 -7z"></path> <path d="M2385 3900 c11 -5 31 -8 45 -8 l25 0 -25 8 c-14 4 -34 8 -45 8 l-20 1 20 -9z"></path> <path d="M2510 3870 c8 -5 29 -10 45 -10 23 0 27 3 15 10 -8 5 -28 10 -45 10 -23 0 -27 -3 -15 -10z"></path> <path d="M3721 3866 c-9 -11 -6 -12 14 -8 14 2 25 8 25 13 0 14 -26 11 -39 -5z"></path> <path d="M1270 3850 c-19 -11 -43 -19 -52 -20 -10 0 -18 -5 -18 -11 0 -6 6 -9 14 -6 8 3 34 11 57 18 24 7 55 19 69 26 l25 13 -30 0 c-16 -1 -46 -9 -65 -20z"></path> <path d="M1586 3835 c-3 -8 -1 -15 4 -15 6 0 10 7 10 15 0 8 -2 15 -4 15 -2 0 -6 -7 -10 -15z"></path> <path d="M1518 3788 c-19 -18 -53 -47 -74 -65 -56 -46 -175 -168 -231 -238 -26 -33 -51 -61 -55 -63 -5 -2 -8 -8 -8 -14 0 -5 -12 -25 -26 -44 -15 -19 -22 -34 -17 -34 5 0 29 26 52 58 67 92 110 141 207 237 100 99 185 175 196 175 5 0 8 5 8 10 0 17 -15 11 -52 -22z"></path> <path d="M3560 3807 c-39 -10 -41 -12 -18 -15 15 -2 40 4 55 12 32 18 25 18 -37 3z"></path> <path d="M1118 3788 c-27 -11 -48 -24 -48 -29 0 -5 2 -9 4 -9 9 0 116 50 116 55 0 9 -25 4 -72 -17z"></path> <path d="M2840 3806 c0 -2 11 -6 25 -8 14 -3 25 -1 25 3 0 5 -11 9 -25 9 -14 0 -25 -2 -25 -4z"></path> <path d="M3067 3759 c7 -7 15 -10 18 -7 3 3 -2 9 -12 12 -14 6 -15 5 -6 -5z"></path> <path d="M340 3755 c0 -25 90 -118 160 -165 12 -8 36 -27 54 -42 32 -29 46 -34 46 -19 0 5 -17 20 -37 32 -49 30 -73 50 -155 133 -37 38 -68 66 -68 61z"></path> <path d="M3240 3740 c-19 -19 -20 -34 -22 -252 0 -128 -1 -306 -1 -395 l1 -162 32 -41 c23 -30 265 -274 325 -329 3 -2 5 0 5 5 0 6 -71 82 -158 170 -87 87 -163 172 -170 187 -17 40 -17 788 0 805 7 7 23 12 38 13 14 0 34 4 45 9 15 6 8 9 -27 9 -35 1 -53 -4 -68 -19z"></path> <path d="M1014 3737 c-12 -6 -44 -24 -72 -39 -51 -28 -176 -112 -200 -135 -19 -19 -53 -26 -65 -14 -15 15 -27 14 -27 -3 0 -8 -6 -16 -12 -18 -8 -3 -13 -26 -15 -57 l-1 -53 16 33 c11 21 41 50 82 76 36 23 70 45 75 50 30 24 104 73 110 73 3 0 21 10 38 23 18 13 51 32 74 43 42 19 56 34 31 34 -7 0 -22 -6 -34 -13z"></path> <path d="M3069 3618 c-2 -68 -4 -242 -4 -388 -1 -146 -2 -277 -3 -291 -1 -18 -56 -79 -201 -225 -155 -156 -200 -206 -203 -229 -2 -26 1 -30 22 -33 22 -2 23 -1 8 8 -25 15 -22 34 7 56 14 10 25 22 25 25 0 4 64 69 141 146 78 76 155 152 172 168 33 33 57 82 58 117 4 196 -3 768 -10 768 -5 0 -10 -55 -12 -122z"></path> <path d="M2340 3639 c-50 -27 -209 -99 -218 -99 -4 0 -20 -7 -36 -16 -17 -8 -82 -35 -145 -60 -64 -25 -138 -55 -166 -68 -27 -13 -93 -43 -145 -66 -52 -23 -114 -51 -138 -61 -24 -11 -62 -27 -85 -36 -23 -9 -49 -22 -58 -30 -8 -7 -19 -13 -24 -13 -22 0 -124 -44 -129 -56 -7 -17 8 -12 139 46 22 10 60 26 85 36 25 10 52 24 61 31 8 7 24 13 33 13 10 0 35 8 55 18 60 31 158 74 356 157 50 20 108 45 130 55 22 10 87 38 145 63 58 25 119 52 135 60 17 9 38 18 48 21 19 6 24 27 5 25 -7 -1 -29 -10 -48 -20z"></path> <path d="M2419 3513 c-1 -76 -3 -190 -4 -253 -2 -75 0 -103 6 -80 8 39 13 470 4 470 -3 0 -6 -62 -6 -137z"></path> <path d="M572 3405 c-11 -13 -10 -15 7 -15 10 0 21 7 25 15 7 19 -15 19 -32 0z"></path> <path d="M531 3354 c-11 -15 -21 -32 -21 -38 0 -6 7 -2 15 9 8 11 19 26 26 33 6 7 9 16 6 18 -3 3 -14 -7 -26 -22z"></path> <path d="M1068 3289 c-9 -16 -14 -29 -9 -29 8 0 34 50 29 56 -2 1 -11 -11 -20 -27z"></path> <path d="M425 3225 c-33 -41 -62 -81 -64 -88 -2 -6 -11 -21 -21 -32 -18 -21 -70 -110 -70 -119 0 -18 19 -2 31 26 15 36 78 131 91 136 4 2 8 9 8 15 0 7 11 24 25 39 14 15 25 31 25 35 0 5 9 16 20 26 16 14 27 37 18 37 -2 0 -30 -34 -63 -75z"></path> <path d="M1520 3128 c-14 -6 -58 -26 -97 -44 -40 -19 -77 -34 -83 -34 -6 0 -18 -4 -28 -10 -9 -5 -71 -32 -137 -61 -160 -69 -202 -88 -190 -89 26 0 138 42 246 92 42 19 92 41 113 48 20 6 62 25 94 41 31 16 63 29 70 29 6 0 12 5 12 10 0 13 47 13 55 -1 4 -6 7 -370 7 -810 0 -611 -3 -803 -12 -814 -7 -8 -61 -33 -121 -56 -60 -23 -109 -46 -109 -51 0 -4 -7 -8 -15 -8 -21 0 -125 -51 -125 -61 0 -15 30 -10 36 6 4 8 10 12 15 9 5 -2 29 7 54 21 25 14 83 39 128 56 104 39 146 60 160 80 9 12 12 232 12 828 0 711 -2 813 -15 821 -19 12 -38 12 -70 -2z"></path> <path d="M1145 3121 c-3 -5 -18 -12 -34 -16 -16 -3 -36 -13 -43 -22 -11 -14 -10 -16 13 -10 45 11 99 37 99 47 0 13 -27 13 -35 1z"></path> <path d="M2411 3114 c0 -11 3 -14 6 -6 3 7 2 16 -1 19 -3 4 -6 -2 -5 -13z"></path> <path d="M972 3059 c6 -18 47 -24 61 -10 8 8 7 11 -3 11 -8 0 -26 3 -39 7 -18 4 -23 2 -19 -8z"></path> <path d="M216 2883 c-15 -32 -34 -70 -42 -85 -18 -33 -18 -43 0 -26 7 8 25 39 38 69 48 104 51 139 4 42z"></path> <path d="M918 2873 c-21 -8 -38 -21 -38 -28 0 -7 -7 -18 -15 -25 -8 -7 -17 -28 -20 -49 -4 -20 -11 -47 -16 -59 -7 -18 -6 -23 3 -20 7 3 16 28 19 56 5 41 14 58 39 82 18 17 43 33 56 36 13 3 24 10 24 15 0 12 -8 11 -52 -8z"></path> <path d="M151 2733 c0 -12 -5 -25 -11 -28 -5 -3 -10 -16 -10 -29 0 -12 -4 -26 -9 -31 -11 -13 -22 -75 -13 -75 11 0 54 146 49 167 -4 15 -5 14 -6 -4z"></path> <path d="M814 2636 c-3 -8 -4 -23 -2 -33 3 -11 6 -6 9 15 6 34 2 42 -7 18z"></path> <path d="M795 2498 c-18 -178 -9 -427 16 -468 6 -10 7 3 2 35 -5 28 -7 152 -7 278 1 125 1 227 -1 227 -1 0 -6 -33 -10 -72z"></path> <path d="M3608 2530 c12 -11 24 -20 28 -20 4 0 -1 9 -11 20 -10 11 -23 20 -28 20 -6 0 -1 -9 11 -20z"></path> <path d="M78 2520 c-4 -14 -8 -40 -8 -59 0 -18 -7 -61 -16 -95 -21 -75 -24 -482 -5 -529 6 -16 14 -61 17 -100 4 -40 11 -79 16 -87 10 -17 6 42 -13 165 -20 126 -17 472 5 576 17 85 20 186 4 129z"></path> <path d="M3625 2459 c-11 -17 1 -21 15 -4 8 9 8 15 2 15 -6 0 -14 -5 -17 -11z"></path> <path d="M2699 2427 c14 -17 266 -267 312 -310 55 -50 54 -40 55 -497 1 -635 3 -712 14 -705 6 4 10 210 10 560 0 543 -3 605 -32 605 -4 0 -8 5 -8 10 0 11 -322 330 -348 344 -15 8 -15 7 -3 -7z"></path> <path d="M3562 2398 c-22 -24 -102 -104 -177 -178 -75 -74 -143 -148 -152 -165 -25 -46 -26 -1021 -1 -983 1 2 5 217 8 478 5 453 6 477 25 507 11 17 74 87 140 156 173 179 208 217 203 222 -3 3 -23 -14 -46 -37z"></path> <path d="M2412 2000 c0 -52 2 -77 7 -65 5 11 5 49 1 85 l-7 65 -1 -85z"></path> <path d="M819 2000 c-3 -8 -2 -33 3 -55 6 -22 11 -47 13 -55 18 -82 27 -113 34 -128 5 -9 19 -42 31 -72 49 -122 150 -314 150 -285 0 7 -35 80 -58 120 -57 100 -142 325 -142 375 0 14 -4 30 -9 36 -5 5 -11 25 -13 44 -2 20 -6 28 -9 20z"></path> <path d="M3943 1893 c-11 -10 -29 -38 -40 -63 -45 -100 -65 -139 -111 -220 -76 -136 -85 -150 -117 -189 -16 -21 -41 -52 -55 -71 -37 -50 -229 -237 -309 -302 -12 -10 -32 -18 -46 -18 -14 0 -25 -4 -25 -10 0 -5 9 -10 19 -10 21 0 161 107 161 123 0 6 3 8 6 4 9 -8 225 213 259 264 6 9 38 58 73 110 67 100 185 326 176 340 -2 4 4 13 14 18 16 9 32 9 86 2 10 -1 2 -155 -14 -276 -22 -159 -84 -358 -163 -525 -31 -67 -115 -206 -132 -220 -8 -7 -15 -18 -15 -24 0 -6 -16 -29 -35 -50 -19 -22 -35 -42 -35 -45 0 -10 -122 -133 -220 -221 -52 -47 -96 -88 -98 -92 -2 -5 -8 -8 -13 -8 -5 0 -40 -22 -77 -48 -37 -27 -88 -59 -114 -71 -47 -23 -62 -41 -33 -41 8 0 15 4 15 9 0 5 10 13 23 17 23 7 185 111 202 130 6 6 32 28 60 50 71 56 214 202 304 310 36 43 129 188 166 258 58 110 132 302 149 386 3 14 12 50 20 81 8 31 17 76 20 100 19 150 26 248 20 265 -13 35 -37 54 -69 54 -18 0 -41 -8 -52 -17z"></path> <path d="M2348 1658 c-16 -5 -28 -15 -28 -21 0 -8 4 -7 12 1 7 7 20 12 30 12 10 0 18 5 18 10 0 6 -1 10 -2 9 -2 0 -15 -5 -30 -11z"></path> <path d="M2285 1631 c-6 -5 -48 -25 -95 -46 -47 -21 -107 -48 -135 -60 -106 -48 -243 -105 -249 -105 -4 0 -31 -11 -59 -24 -94 -44 -247 -106 -262 -106 -8 0 -15 -4 -15 -10 0 -5 -6 -10 -13 -10 -13 0 -126 -47 -164 -68 -15 -8 -23 -22 -23 -40 0 -34 10 -47 75 -98 28 -21 55 -44 60 -50 25 -26 174 -117 245 -149 19 -9 54 -25 78 -36 88 -40 257 -90 279 -82 7 3 13 0 13 -6 0 -7 18 -10 48 -9 43 1 44 2 10 5 -21 2 -38 8 -38 13 0 4 -19 10 -42 13 -65 8 -152 30 -159 40 -3 5 -8 8 -10 7 -4 -2 -35 10 -106 41 -24 11 -44 19 -46 19 -2 0 -44 23 -93 51 -109 63 -190 119 -238 165 -6 6 -23 18 -38 28 -16 10 -28 26 -28 36 0 22 31 50 56 50 11 0 29 6 40 14 11 8 41 23 65 32 42 16 215 89 289 121 41 18 48 21 165 68 108 44 128 53 225 98 157 72 190 89 190 98 0 11 -13 12 -25 0z"></path> <path d="M110 1559 c0 -11 5 -30 12 -42 7 -12 12 -29 13 -37 3 -34 18 -80 27 -80 10 0 10 0 -21 108 -22 73 -31 89 -31 51z"></path> <path d="M1055 1380 c3 -5 8 -10 11 -10 2 0 4 5 4 10 0 6 -5 10 -11 10 -5 0 -7 -4 -4 -10z"></path> <path d="M176 1363 c3 -10 10 -27 14 -38 5 -11 14 -37 20 -57 6 -21 15 -38 20 -38 10 0 -1 39 -29 103 -22 46 -36 64 -25 30z"></path> <path d="M1148 1288 c9 -9 15 -9 24 0 9 9 7 12 -12 12 -19 0 -21 -3 -12 -12z"></path> <path d="M240 1205 c0 -8 4 -15 10 -15 5 0 7 7 4 15 -4 8 -8 15 -10 15 -2 0 -4 -7 -4 -15z"></path> <path d="M260 1175 c0 -13 34 -80 68 -135 65 -103 85 -130 93 -130 5 0 9 -6 9 -12 0 -7 14 -29 30 -48 46 -54 36 -20 -13 43 -24 30 -52 71 -62 91 -11 20 -23 36 -27 36 -5 0 -8 7 -8 15 0 8 -3 15 -7 15 -5 0 -17 19 -28 43 -20 43 -55 96 -55 82z"></path> <path d="M3222 1040 c0 -14 2 -19 5 -12 2 6 2 18 0 25 -3 6 -5 1 -5 -13z"></path> <path d="M3010 873 l-25 -15 25 6 c14 3 28 6 33 6 4 0 7 5 7 10 0 13 -9 11 -40 -7z"></path> <path d="M2933 853 c-13 -2 -23 -9 -23 -14 0 -14 33 -10 54 6 20 15 15 17 -31 8z"></path> <path d="M2845 815 c-68 -25 -184 -55 -211 -55 -14 0 -23 -4 -20 -9 6 -10 -191 -23 -349 -22 -72 0 -103 -3 -90 -9 26 -12 305 -11 305 1 0 5 28 9 63 9 34 0 78 5 97 10 187 49 237 64 250 76 18 17 6 17 -45 -1z"></path> <path d="M510 789 c0 -17 130 -153 224 -233 73 -62 82 -70 106 -86 12 -8 31 -23 42 -32 24 -20 38 -23 38 -8 0 6 -5 10 -11 10 -10 0 -93 63 -114 86 -5 7 -16 13 -22 15 -19 6 -212 200 -231 232 -17 27 -32 36 -32 16z"></path> <path d="M930 416 c0 -12 25 -33 48 -40 12 -4 22 -12 22 -17 0 -5 7 -9 15 -9 9 0 18 -7 21 -15 4 -8 10 -15 14 -15 4 0 36 -16 70 -35 62 -35 80 -41 80 -27 0 4 -24 18 -53 32 -28 14 -54 28 -57 31 -3 4 -30 21 -60 38 -30 17 -65 39 -77 48 -13 8 -23 12 -23 9z"></path> <path d="M1210 244 c0 -3 30 -19 68 -36 37 -16 83 -37 102 -46 19 -9 42 -17 50 -18 8 -1 33 -8 55 -17 22 -8 60 -20 85 -27 25 -7 55 -16 68 -21 29 -11 55 -12 48 0 -3 4 -34 16 -68 25 -35 10 -87 26 -116 37 -28 10 -55 19 -60 20 -4 1 -17 5 -30 10 -13 5 -27 9 -32 9 -8 0 -26 8 -106 49 -41 21 -64 26 -64 15z"></path> <path d="M2994 225 c-27 -14 -55 -25 -61 -25 -7 0 -13 -4 -13 -10 0 -15 15 -12 57 8 21 11 49 23 62 29 14 5 20 12 14 16 -6 4 -32 -5 -59 -18z"></path> <path d="M2865 173 c-11 -3 -29 -12 -40 -19 -11 -8 -30 -14 -42 -14 -13 0 -31 -4 -41 -10 -9 -5 -45 -17 -79 -27 -35 -10 -63 -21 -63 -25 0 -4 3 -8 7 -8 10 0 174 50 198 60 11 5 37 14 58 20 20 6 37 16 37 21 0 10 -3 10 -35 2z"></path> <path d="M1720 62 c57 -34 586 -52 710 -25 30 7 78 16 105 20 l50 8 -49 3 c-26 2 -62 -2 -80 -8 -48 -17 -403 -24 -536 -10 -189 20 -216 21 -200 12z"></path> </g> </svg>